<svg width="89" height="88" viewBox="0 0 89 88" fill="none" xmlns="http://www.w3.org/2000/svg">
<path d="M44.0938 0C19.6266 0 0 19.8225 0 43.9375C0 68.0525 19.6266 87.875 44.0938 87.875C68.5609 87.875 88.2188 68.0525 88.2188 43.9375C88.2188 19.8225 68.5609 0 44.0938 0ZM44.0938 3.84375C66.0185 3.84375 83.9688 21.6606 83.9688 43.9375C83.9688 66.2144 66.0185 84.0312 44.0938 84.0312C22.169 84.0312 4.15625 66.2144 4.15625 43.9375C4.15625 21.6606 22.169 3.84375 44.0938 3.84375ZM43.8125 31.1875C43.4701 31.2395 43.1471 31.3795 42.875 31.5938L23.9688 46.2812C23.7377 46.4322 23.5403 46.6292 23.3891 46.8601C23.2379 47.091 23.1361 47.3507 23.0902 47.6228C23.0442 47.895 23.0551 48.1737 23.122 48.4414C23.189 48.7091 23.3107 48.9601 23.4794 49.1785C23.6481 49.397 23.8601 49.5781 24.1022 49.7106C24.3443 49.8431 24.6112 49.9241 24.8861 49.9484C25.1611 49.9727 25.438 49.9399 25.6996 49.8519C25.9612 49.764 26.2018 49.6229 26.4062 49.4375L44.0938 35.6875L61.7812 49.4375C61.9857 49.6229 62.2263 49.764 62.4879 49.8519C62.7495 49.9399 63.0264 49.9727 63.3014 49.9484C63.5763 49.9241 63.8432 49.8431 64.0853 49.7106C64.3274 49.5781 64.5395 49.397 64.7081 49.1785C64.8768 48.9601 64.9985 48.7091 65.0655 48.4414C65.1324 48.1737 65.1433 47.895 65.0973 47.6228C65.0514 47.3507 64.9496 47.091 64.7984 46.8601C64.6472 46.6292 64.4498 46.4322 64.2188 46.2812L45.3125 31.5938C45.1022 31.4294 44.8612 31.3088 44.6036 31.239C44.346 31.1692 44.077 31.1517 43.8125 31.1875Z" fill="black"/>
</svg>
